<?xml version="1.0" standalone="no"?>
<!DOCTYPE svg PUBLIC "-//W3C//DTD SVG 20010904//EN"
 "http://www.w3.org/TR/2001/REC-SVG-20010904/DTD/svg10.dtd">
<svg version="1.0" xmlns="http://www.w3.org/2000/svg"
 width="200.000000pt" height="200.000000pt" viewBox="0 0 200.000000 200.000000"
 preserveAspectRatio="xMidYMid meet">
<metadata>
Created by potrace 1.15, written by Peter Selinger 2001-2017
</metadata>
<g transform="translate(0.000000,200.000000) scale(0.100000,-0.100000)"
fill="#000000" stroke="none">
<path d="M1290 1859 c-200 -79 -323 -281 -290 -482 20 -130 119 -270 229 -327
111 -56 266 -65 366 -21 l48 21 86 -84 c93 -91 126 -106 186 -86 56 18 85 62
85 126 l0 55 -86 89 c-79 82 -85 90 -73 111 36 67 48 191 28 278 -29 128 -126
247 -246 304 -61 28 -79 32 -173 34 -88 3 -114 0 -160 -18z m256 -164 c52 -22
120 -91 144 -147 18 -43 22 -65 18 -123 -10 -154 -117 -255 -268 -254 -76 1
-112 12 -173 55 -98 70 -132 227 -74 340 65 127 221 184 353 129z"/>
<path d="M290 1440 c-83 -11 -153 -27 -196 -45 -33 -14 -34 -15 -34 -72 0 -54
-2 -59 -30 -75 l-30 -17 0 -504 c0 -475 1 -505 18 -520 16 -15 53 -17 310 -17
236 0 292 -3 292 -13 0 -8 10 -23 23 -35 22 -21 33 -22 171 -22 140 0 150 1
167 22 11 11 19 27 19 35 0 11 55 13 299 13 299 0 300 0 315 22 14 19 16 73
16 385 0 200 -2 363 -5 363 -2 0 -30 -7 -62 -15 -31 -8 -74 -15 -95 -15 l-38
0 0 -289 0 -289 -37 9 c-117 27 -375 19 -476 -16 l-37 -13 2 471 3 471 33 10
c24 7 31 13 26 25 -3 9 -9 37 -13 63 l-6 47 -58 -20 c-52 -18 -60 -18 -93 -4
-97 40 -344 64 -484 45z m378 -148 l73 -17 2 -470 2 -470 -70 18 c-96 25 -287
32 -397 15 l-88 -14 0 468 0 468 23 5 c108 28 333 26 455 -3z"/>
<path d="M310 1193 c-53 -5 -70 -17 -70 -50 l0 -24 128 7 c106 5 229 -2 303
-18 9 -2 15 8 17 29 3 30 2 31 -50 43 -58 12 -257 21 -328 13z"/>
<path d="M275 1062 c-25 -6 -30 -12 -30 -36 l0 -28 195 -3 c107 -1 208 -6 223
-10 27 -7 28 -6 25 26 -2 26 -9 34 -33 42 -38 11 -340 18 -380 9z"/>
<path d="M315 943 c-58 -5 -75 -16 -75 -50 l0 -24 123 7 c103 6 208 -1 311
-19 6 -1 12 12 14 30 3 30 2 31 -50 43 -59 12 -246 20 -323 13z"/>
<path d="M280 812 c-30 -6 -35 -11 -35 -35 l0 -29 195 -3 c107 -1 208 -6 223
-10 27 -7 28 -6 25 26 -2 26 -9 34 -33 42 -38 11 -328 18 -375 9z"/>
<path d="M315 693 c-58 -5 -75 -16 -75 -50 l0 -24 123 7 c103 6 208 -1 311
-19 6 -1 12 12 14 30 3 30 2 31 -50 43 -59 12 -246 20 -323 13z"/>
<path d="M280 562 c-30 -6 -35 -11 -35 -35 l0 -29 195 -3 c107 -1 208 -6 223
-10 27 -7 28 -6 25 26 -2 26 -9 34 -33 42 -38 11 -328 18 -375 9z"/>
<path d="M1075 944 c-22 -3 -64 -9 -93 -15 -52 -10 -53 -11 -50 -42 2 -18 8
-31 14 -30 103 18 208 25 312 19 l122 -6 0 29 c0 17 -6 31 -16 35 -21 8 -237
15 -289 10z"/>
<path d="M1006 810 c-70 -12 -76 -16 -76 -50 l0 -31 53 8 c28 4 130 8 225 8
l173 0 -3 30 c-2 24 -9 31 -33 36 -43 9 -281 8 -339 -1z"/>
<path d="M1070 694 c-19 -3 -59 -9 -88 -15 -52 -10 -53 -11 -50 -42 2 -18 8
-31 14 -30 103 18 208 25 312 19 l122 -6 0 29 c0 18 -6 31 -17 35 -21 8 -247
16 -293 10z"/>
<path d="M1006 560 c-70 -12 -76 -16 -76 -50 l0 -31 53 8 c28 4 130 8 225 8
l173 0 -3 30 c-2 24 -9 31 -33 36 -43 9 -281 8 -339 -1z"/>
</g>
</svg>
